<?xml version="1.0" encoding="UTF-8" standalone="no"?>
<svg
   xmlns:dc="http://purl.org/dc/elements/1.1/"
   xmlns:cc="http://creativecommons.org/ns#"
   xmlns:rdf="http://www.w3.org/1999/02/22-rdf-syntax-ns#"
   xmlns:svg="http://www.w3.org/2000/svg"
   xmlns="http://www.w3.org/2000/svg"
   xml:space="preserve"
   enable-background="new 0 0 190 55"
   viewBox="0 0 190 55"
   height="55px"
   width="190px"
   y="0px"
   x="0px"
   id="Layer_1"
   version="1.0"><metadata
     id="metadata55"><rdf:RDF><cc:Work
         rdf:about=""><dc:format>image/svg+xml</dc:format><dc:type
           rdf:resource="http://purl.org/dc/dcmitype/StillImage" /></cc:Work></rdf:RDF></metadata><defs
     id="defs53" /><g
     id="g48"><path
       id="path2"
       d="M30.798,25.727c-0.052-5.539,4.536-8.235,4.746-8.36c-2.597-3.79-6.625-4.306-8.039-4.347   c-3.381-0.354-6.661,2.026-8.381,2.026c-1.757,0-4.415-1.99-7.27-1.933c-3.679,0.059-7.122,2.188-9.008,5.494   c-3.894,6.744-0.99,16.652,2.74,22.107c1.868,2.668,4.05,5.649,6.904,5.543c2.793-0.116,3.835-1.779,7.208-1.779   c3.342,0,4.321,1.779,7.233,1.713c2.997-0.05,4.884-2.682,6.685-5.377c2.16-3.059,3.025-6.072,3.06-6.228   C36.607,34.563,30.856,32.369,30.798,25.727"
       fill="#FFFFFF" /><path
       id="path4"
       d="M25.296,9.435c1.502-1.879,2.533-4.437,2.243-7.029c-2.174,0.096-4.892,1.502-6.456,3.342   c-1.387,1.619-2.627,4.274-2.306,6.77C21.223,12.698,23.728,11.283,25.296,9.435"
       fill="#FFFFFF" /><path
       id="path6"
       d="M71.224,45.877h-3.902l-2.14-6.723h-7.43l-2.039,6.723h-3.801l7.368-22.878h4.545L71.224,45.877z    M64.54,36.336l-1.932-5.975c-0.208-0.609-0.592-2.047-1.156-4.308h-0.067c-0.228,0.974-0.591,2.409-1.088,4.308l-1.901,5.975   H64.54z"
       fill="#FFFFFF" /><path
       id="path8"
       d="M90.166,37.424c0,2.806-0.758,5.023-2.274,6.653c-1.358,1.448-3.045,2.171-5.056,2.171   c-2.174,0-3.735-0.783-4.687-2.342h-0.064v8.688h-3.669V34.81c0-1.765-0.044-3.572-0.135-5.431h3.224l0.204,2.615h0.07   c1.22-1.971,3.077-2.954,5.564-2.954c1.943,0,3.57,0.771,4.871,2.31C89.515,32.891,90.166,34.914,90.166,37.424 M86.432,37.559   c0-1.605-0.363-2.93-1.086-3.973c-0.793-1.084-1.857-1.629-3.189-1.629c-0.906,0-1.73,0.303-2.461,0.898   c-0.736,0.605-1.218,1.389-1.443,2.363c-0.113,0.453-0.168,0.824-0.168,1.117v2.751c0,1.2,0.365,2.212,1.099,3.036   c0.738,0.83,1.694,1.238,2.87,1.238c1.381,0,2.456-0.527,3.223-1.593C86.048,40.703,86.432,39.302,86.432,37.559"
       fill="#FFFFFF" /><path
       id="path10"
       d="M109.137,37.424c0,2.806-0.756,5.023-2.275,6.653c-1.357,1.448-3.041,2.171-5.057,2.171   c-2.17,0-3.73-0.783-4.682-2.342h-0.066v8.688H93.39V34.81c0-1.765-0.047-3.572-0.135-5.431h3.223l0.205,2.615h0.07   c1.217-1.971,3.072-2.954,5.564-2.954c1.943,0,3.568,0.771,4.869,2.31C108.488,32.891,109.137,34.914,109.137,37.424    M105.406,37.559c0-1.605-0.363-2.93-1.088-3.973c-0.793-1.084-1.855-1.629-3.189-1.629c-0.906,0-1.729,0.303-2.461,0.898   c-0.736,0.605-1.215,1.389-1.441,2.363c-0.115,0.453-0.17,0.824-0.17,1.117v2.751c0,1.2,0.365,2.212,1.102,3.036   c0.734,0.83,1.689,1.238,2.869,1.238c1.379,0,2.457-0.527,3.223-1.593C105.018,40.703,105.406,39.302,105.406,37.559"
       fill="#FFFFFF" /><path
       id="path12"
       d="M130.352,39.46c0,1.946-0.674,3.528-2.033,4.752c-1.49,1.337-3.564,2.002-6.229,2.002   c-2.461,0-4.438-0.475-5.932-1.425l0.85-3.055c1.611,0.975,3.375,1.459,5.301,1.459c1.381,0,2.455-0.311,3.227-0.933   c0.768-0.624,1.152-1.458,1.152-2.5c0-0.928-0.316-1.712-0.949-2.345c-0.633-0.637-1.689-1.225-3.16-1.77   c-4.006-1.497-6.006-3.684-6.006-6.562c0-1.881,0.699-3.422,2.104-4.621c1.402-1.202,3.27-1.806,5.602-1.806   c2.082,0,3.814,0.365,5.191,1.088l-0.914,2.987c-1.291-0.7-2.75-1.052-4.381-1.052c-1.291,0-2.295,0.315-3.02,0.95   c-0.607,0.564-0.914,1.256-0.914,2.07c0,0.904,0.348,1.652,1.051,2.238c0.607,0.544,1.717,1.132,3.326,1.768   c1.969,0.793,3.414,1.719,4.344,2.781C129.889,36.554,130.352,37.877,130.352,39.46"
       fill="#FFFFFF" /><path
       id="path14"
       d="M142.469,32.128h-4.039v8.011c0,2.037,0.713,3.055,2.141,3.055c0.652,0,1.197-0.057,1.627-0.168   l0.102,2.782c-0.721,0.271-1.674,0.406-2.85,0.406c-1.449,0-2.58-0.44-3.395-1.321c-0.814-0.883-1.223-2.367-1.223-4.447v-8.317   h-2.41v-2.751h2.41v-3.019l3.598-1.088v4.106h4.039V32.128z"
       fill="#FFFFFF" /><path
       id="path16"
       d="M160.697,37.491c0,2.536-0.723,4.616-2.17,6.247c-1.52,1.676-3.535,2.51-6.043,2.51   c-2.424,0-4.35-0.803-5.787-2.41c-1.438-1.605-2.156-3.632-2.156-6.072c0-2.561,0.74-4.652,2.225-6.279   c1.479-1.633,3.477-2.446,5.988-2.446c2.42,0,4.369,0.804,5.84,2.409C159.998,33.014,160.697,35.025,160.697,37.491    M156.895,37.609c0-1.52-0.326-2.823-0.984-3.914c-0.768-1.315-1.865-1.975-3.291-1.975c-1.475,0-2.592,0.659-3.359,1.975   c-0.658,1.091-0.982,2.418-0.982,3.985c0,1.521,0.324,2.823,0.982,3.912c0.789,1.315,1.898,1.974,3.328,1.974   c1.4,0,2.498-0.668,3.289-2.008C156.555,40.447,156.895,39.131,156.895,37.609"
       fill="#FFFFFF" /><path
       id="path18"
       d="M172.609,32.603c-0.361-0.065-0.746-0.101-1.152-0.101c-1.287,0-2.287,0.489-2.99,1.461   c-0.607,0.86-0.914,1.945-0.914,3.256v8.656h-3.664l0.031-11.301c0-1.902-0.047-3.633-0.133-5.195h3.191l0.135,3.158h0.098   c0.387-1.085,1-1.957,1.834-2.613c0.814-0.588,1.699-0.884,2.65-0.884c0.336,0,0.645,0.022,0.914,0.065V32.603z"
       fill="#FFFFFF" /><path
       id="path20"
       d="M189.002,36.846c0,0.658-0.045,1.21-0.133,1.664h-10.994c0.041,1.629,0.574,2.875,1.592,3.736   c0.926,0.77,2.127,1.149,3.6,1.149c1.623,0,3.109-0.259,4.445-0.779l0.574,2.546c-1.559,0.68-3.402,1.021-5.533,1.021   c-2.555,0-4.564-0.754-6.023-2.26c-1.455-1.503-2.189-3.526-2.189-6.06c0-2.487,0.68-4.56,2.039-6.213   c1.422-1.765,3.348-2.646,5.768-2.646c2.375,0,4.178,0.881,5.402,2.646C188.518,33.056,189.002,34.786,189.002,36.846    M185.506,35.895c0.027-1.083-0.213-2.023-0.709-2.815c-0.635-1.019-1.611-1.528-2.924-1.528c-1.195,0-2.17,0.5-2.916,1.494   c-0.611,0.793-0.975,1.741-1.082,2.85H185.506z"
       fill="#FFFFFF" /><path
       id="path22"
       d="M63.183,8.924c0,2.022-0.604,3.547-1.816,4.569c-1.122,0.943-2.718,1.418-4.783,1.418   c-1.022,0-1.904-0.045-2.637-0.135V3.722c0.955-0.155,1.989-0.233,3.102-0.233c1.969,0,3.452,0.428,4.455,1.284   C62.623,5.739,63.183,7.123,63.183,8.924 M61.286,8.976c0-1.314-0.35-2.319-1.043-3.021c-0.697-0.699-1.708-1.049-3.045-1.049   c-0.567,0-1.049,0.038-1.45,0.117v8.403c0.223,0.034,0.629,0.05,1.217,0.05c1.378,0,2.446-0.382,3.191-1.15   C60.908,11.559,61.286,10.441,61.286,8.976"
       fill="#FFFFFF" /><path
       id="path24"
       d="M73.255,10.692c0,1.244-0.357,2.268-1.067,3.065c-0.746,0.826-1.736,1.238-2.969,1.238   c-1.192,0-2.138-0.396-2.845-1.187c-0.705-0.787-1.058-1.782-1.058-2.984c0-1.257,0.363-2.285,1.094-3.085   c0.726-0.802,1.709-1.2,2.943-1.2c1.191,0,2.145,0.396,2.865,1.184C72.911,8.49,73.255,9.48,73.255,10.692 M71.388,10.75   c0-0.749-0.164-1.387-0.485-1.923c-0.378-0.647-0.916-0.972-1.617-0.972c-0.72,0-1.274,0.324-1.649,0.972   c-0.324,0.536-0.485,1.187-0.485,1.954c0,0.748,0.161,1.391,0.485,1.927c0.386,0.646,0.93,0.97,1.635,0.97   c0.687,0,1.228-0.329,1.616-0.987C71.219,12.144,71.388,11.499,71.388,10.75"
       fill="#FFFFFF" /><path
       id="path26"
       d="M86.763,6.706l-2.539,8.104h-1.647l-1.052-3.516c-0.265-0.878-0.482-1.755-0.65-2.619h-0.03   c-0.159,0.889-0.377,1.761-0.653,2.619l-1.116,3.516h-1.669l-2.384-8.104h1.853l0.915,3.853c0.223,0.911,0.406,1.776,0.552,2.601   h0.033c0.135-0.679,0.353-1.541,0.669-2.586l1.147-3.867h1.466l1.102,3.784c0.27,0.926,0.486,1.814,0.649,2.669h0.05   c0.124-0.834,0.306-1.723,0.555-2.669l0.984-3.784H86.763z"
       fill="#FFFFFF" /><path
       id="path28"
       d="M96.1,14.81H94.3v-4.64c0-1.434-0.545-2.146-1.636-2.146c-0.533,0-0.963,0.197-1.301,0.588   c-0.331,0.396-0.499,0.857-0.499,1.392v4.806h-1.801V9.024c0-0.713-0.021-1.484-0.065-2.318h1.582l0.085,1.267h0.051   c0.208-0.394,0.521-0.72,0.933-0.977c0.487-0.303,1.034-0.459,1.633-0.459c0.757,0,1.386,0.249,1.886,0.735   C95.789,7.871,96.1,8.771,96.1,9.957V14.81z"
       fill="#FFFFFF" /><rect
       id="rect30"
       height="11.824"
       width="1.805"
       fill="#FFFFFF"
       y="2.985"
       x="99.268" /><path
       id="path32"
       d="M111.676,10.692c0,1.244-0.357,2.268-1.07,3.065c-0.742,0.826-1.732,1.238-2.969,1.238   c-1.189,0-2.135-0.396-2.842-1.187c-0.705-0.787-1.057-1.782-1.057-2.984c0-1.257,0.359-2.285,1.09-3.085   c0.729-0.802,1.707-1.2,2.945-1.2c1.188,0,2.146,0.396,2.865,1.184C111.328,8.49,111.676,9.48,111.676,10.692 M109.809,10.75   c0-0.749-0.164-1.387-0.484-1.923c-0.379-0.647-0.918-0.972-1.617-0.972c-0.721,0-1.275,0.324-1.654,0.972   c-0.32,0.536-0.48,1.187-0.48,1.954c0,0.748,0.16,1.391,0.48,1.927c0.391,0.646,0.934,0.97,1.633,0.97   c0.691,0,1.234-0.329,1.623-0.987C109.639,12.144,109.809,11.499,109.809,10.75"
       fill="#FFFFFF" /><path
       id="path34"
       d="M120.396,14.81h-1.619l-0.133-0.933h-0.051c-0.559,0.746-1.346,1.116-2.365,1.116   c-0.77,0-1.389-0.243-1.855-0.735c-0.422-0.443-0.629-0.995-0.629-1.647c0-0.989,0.41-1.747,1.242-2.27   c0.824-0.523,1.99-0.777,3.49-0.768V9.424c0-1.068-0.561-1.602-1.678-1.602c-0.803,0-1.506,0.202-2.115,0.601l-0.365-1.184   c0.756-0.466,1.678-0.699,2.777-0.699c2.125,0,3.182,1.116,3.182,3.353v2.984C120.277,13.686,120.318,14.333,120.396,14.81    M118.525,12.024v-1.249c-1.99-0.033-2.984,0.514-2.984,1.636c0,0.422,0.119,0.735,0.354,0.947c0.23,0.211,0.521,0.316,0.875,0.316   c0.396,0,0.762-0.125,1.104-0.373c0.336-0.248,0.543-0.57,0.619-0.959C118.516,12.252,118.525,12.146,118.525,12.024"
       fill="#FFFFFF" /><path
       id="path36"
       d="M130.635,14.81h-1.602l-0.084-1.3h-0.051c-0.51,0.989-1.377,1.486-2.598,1.486   c-0.982,0-1.791-0.386-2.436-1.153c-0.645-0.767-0.967-1.761-0.967-2.984c0-1.313,0.348-2.373,1.047-3.187   c0.68-0.756,1.514-1.132,2.504-1.132c1.09,0,1.852,0.365,2.283,1.101h0.037V2.987h1.799v9.638   C130.568,13.416,130.592,14.144,130.635,14.81 M128.77,11.393v-1.351c0-0.232-0.018-0.424-0.053-0.567   c-0.1-0.432-0.318-0.8-0.654-1.093c-0.334-0.296-0.734-0.44-1.205-0.44c-0.668,0-1.197,0.265-1.58,0.798   c-0.389,0.536-0.58,1.218-0.58,2.049c0,0.804,0.186,1.457,0.555,1.954c0.391,0.534,0.914,0.8,1.568,0.8   c0.594,0,1.072-0.223,1.426-0.668C128.594,12.465,128.77,11.97,128.77,11.393"
       fill="#FFFFFF" /><path
       id="path38"
       d="M146.045,10.692c0,1.244-0.357,2.268-1.072,3.065c-0.742,0.826-1.734,1.238-2.965,1.238   c-1.193,0-2.141-0.396-2.844-1.187c-0.705-0.787-1.057-1.782-1.057-2.984c0-1.257,0.361-2.285,1.088-3.085   c0.73-0.802,1.711-1.2,2.941-1.2c1.193,0,2.146,0.396,2.871,1.184C145.697,8.49,146.045,9.48,146.045,10.692 M144.174,10.75   c0-0.749-0.164-1.387-0.484-1.923c-0.375-0.647-0.92-0.972-1.615-0.972c-0.725,0-1.275,0.324-1.652,0.972   c-0.32,0.536-0.484,1.187-0.484,1.954c0,0.748,0.164,1.391,0.484,1.927c0.391,0.646,0.934,0.97,1.637,0.97   c0.686,0,1.225-0.329,1.613-0.987C144.008,12.144,144.174,11.499,144.174,10.75"
       fill="#FFFFFF" /><path
       id="path40"
       d="M155.729,14.81h-1.803v-4.64c0-1.434-0.545-2.146-1.633-2.146c-0.533,0-0.969,0.197-1.301,0.588   c-0.332,0.396-0.502,0.857-0.502,1.392v4.806h-1.797V9.024c0-0.713-0.027-1.484-0.068-2.318h1.586l0.082,1.267h0.053   c0.207-0.394,0.518-0.72,0.932-0.977c0.488-0.303,1.037-0.459,1.633-0.459c0.758,0,1.389,0.249,1.885,0.735   c0.623,0.599,0.934,1.498,0.934,2.685V14.81z"
       fill="#FFFFFF" /><path
       id="path42"
       d="M167.854,8.056h-1.984v3.938c0,1,0.346,1.5,1.051,1.5c0.322,0,0.586-0.028,0.799-0.083l0.051,1.366   c-0.357,0.132-0.822,0.202-1.4,0.202c-0.713,0-1.268-0.218-1.666-0.65c-0.398-0.437-0.602-1.161-0.602-2.188V8.056h-1.186v-1.35   h1.186V5.221l1.768-0.531v2.017h1.984V8.056z"
       fill="#FFFFFF" /><path
       id="path44"
       d="M177.387,14.81h-1.797v-4.606c0-1.453-0.545-2.179-1.639-2.179c-0.828,0-1.404,0.422-1.711,1.262   c-0.061,0.179-0.086,0.396-0.086,0.65v4.873h-1.801V2.985h1.801v4.886h0.035c0.566-0.889,1.377-1.334,2.43-1.334   c0.75,0,1.363,0.249,1.854,0.735c0.609,0.611,0.914,1.519,0.914,2.721V14.81z"
       fill="#FFFFFF" /><path
       id="path46"
       d="M187.232,10.375c0,0.32-0.027,0.595-0.068,0.818h-5.404c0.021,0.8,0.281,1.409,0.783,1.831   c0.455,0.38,1.047,0.567,1.766,0.567c0.805,0,1.529-0.127,2.188-0.383l0.279,1.25c-0.762,0.333-1.67,0.501-2.715,0.501   c-1.254,0-2.242-0.37-2.961-1.106c-0.713-0.74-1.076-1.732-1.076-2.977c0-1.223,0.332-2.241,1.002-3.055   c0.703-0.868,1.646-1.3,2.834-1.3c1.17,0,2.051,0.432,2.652,1.3C186.988,8.511,187.232,9.363,187.232,10.375 M185.512,9.908   c0.01-0.534-0.107-0.995-0.352-1.384c-0.309-0.5-0.789-0.752-1.432-0.752c-0.59,0-1.066,0.244-1.439,0.734   c-0.297,0.392-0.471,0.856-0.529,1.401H185.512z"
       fill="#FFFFFF" /></g></svg>