<?xml version="1.0" encoding="UTF-8" standalone="no"?>
<svg
   xmlns:dc="http://purl.org/dc/elements/1.1/"
   xmlns:cc="http://creativecommons.org/ns#"
   xmlns:rdf="http://www.w3.org/1999/02/22-rdf-syntax-ns#"
   xmlns:svg="http://www.w3.org/2000/svg"
   xmlns="http://www.w3.org/2000/svg"
   xmlns:xlink="http://www.w3.org/1999/xlink"
   id="svg47"
   version="1.1"
   viewBox="0 0 40 40"
   height="40"
   width="40">
  <metadata
     id="metadata51">
    <rdf:RDF>
      <cc:Work
         rdf:about="">
        <dc:format>image/svg+xml</dc:format>
        <dc:type
           rdf:resource="http://purl.org/dc/dcmitype/StillImage" />
      </cc:Work>
    </rdf:RDF>
  </metadata>
  <defs
     id="defs28">
    <linearGradient
       y2="100%"
       y1="0%"
       x1="0%"
       id="b">
      <stop
         id="stop2"
         stop-color="#93CF5F"
         offset="0%" />
      <stop
         id="stop4"
         stop-color="#63BB17"
         offset="100%" />
    </linearGradient>
    <circle
       r="20"
       cy="20"
       cx="20"
       id="a" />
    <linearGradient
       y2="68.963%"
       y1="23.068%"
       x2="52.199%"
       x1="50%"
       id="d">
      <stop
         id="stop8"
         stop-opacity=".7"
         stop-color="#FFF"
         offset="0%" />
      <stop
         id="stop10"
         stop-color="#FFF"
         offset="100%" />
    </linearGradient>
    <linearGradient
       y2="51.51%"
       y1="47.856%"
       x2="54.595%"
       x1="50%"
       id="e">
      <stop
         id="stop13"
         stop-opacity=".7"
         stop-color="#FFF"
         offset="0%" />
      <stop
         id="stop15"
         stop-color="#FFF"
         offset="100%" />
    </linearGradient>
    <linearGradient
       y2="68.963%"
       y1="23.068%"
       x2="52.953%"
       x1="50%"
       id="f">
      <stop
         id="stop18"
         stop-opacity=".7"
         stop-color="#FFF"
         offset="0%" />
      <stop
         id="stop20"
         stop-color="#FFF"
         offset="100%" />
    </linearGradient>
    <linearGradient
       y2="67.962%"
       y1="24.489%"
       x2="54.595%"
       x1="50%"
       id="g">
      <stop
         id="stop23"
         stop-opacity=".7"
         stop-color="#FFF"
         offset="0%" />
      <stop
         id="stop25"
         stop-color="#FFF"
         offset="100%" />
    </linearGradient>
  </defs>
  <g
     id="g45"
     fill-rule="evenodd"
     fill="none">
    <mask
       fill="#fff"
       id="c">
      <use
         id="use30"
         xlink:href="#a" />
    </mask>
    <use
       id="use33"
       xlink:href="#a"
       fill="url(#b)" />
    <g
       id="g43"
       opacity=".987"
       mask="url(#c)">
      <path
         id="path35"
         transform="translate(5 8.333)"
         d="M16.91 10.322V5.697H7.378v4.625L6.197 12.92a7.936 7.936 0 0 1 6.424.546 5.838 5.838 0 0 0 5.72.018l-1.43-3.162zM8.332 24.648a.938.938 0 0 0-.954.941c0 .528.42.942.954.942a.938.938 0 0 0 .953-.942.938.938 0 0 0-.953-.941zm0 0a.938.938 0 0 0-.954.941c0 .528.42.942.954.942a.938.938 0 0 0 .953-.942.938.938 0 0 0-.953-.941zm0 0a.938.938 0 0 0-.954.941c0 .528.42.942.954.942a.938.938 0 0 0 .953-.942.938.938 0 0 0-.953-.941zm0 0a.938.938 0 0 0-.954.941c0 .528.42.942.954.942a.938.938 0 0 0 .953-.942.938.938 0 0 0-.953-.941zm0 0a.938.938 0 0 0-.954.941c0 .528.42.942.954.942a.938.938 0 0 0 .953-.942.938.938 0 0 0-.953-.941zm0 0a.938.938 0 0 0-.954.941c0 .528.42.942.954.942a.938.938 0 0 0 .953-.942.938.938 0 0 0-.953-.941zm0 0a.938.938 0 0 0-.954.941c0 .528.42.942.954.942a.938.938 0 0 0 .953-.942.938.938 0 0 0-.953-.941zm0 0a.938.938 0 0 0-.954.941c0 .528.42.942.954.942a.938.938 0 0 0 .953-.942.938.938 0 0 0-.953-.941zm6.634 6.589a13.103 13.103 0 0 1-.191-2.278v-.019l-1.258-1.656a12.622 12.622 0 0 1-2.574-7.644V18.06c0-1.11.648-2.07 1.602-2.523a7.392 7.392 0 0 1-.877-.414c-2.211-1.242-4.861-.941-6.749.659L4.9 15.8.764 24.95A4.633 4.633 0 0 0 .61 29.73a4.784 4.784 0 0 0 4.175 2.447h10.351l-.171-.941zM8.332 19c.534 0 .953.414.953.941 0 .528-.42.942-.953.942a.938.938 0 0 1-.954-.942c0-.527.42-.94.954-.94zm0 9.413c-1.583 0-2.86-1.261-2.86-2.824 0-1.562 1.277-2.824 2.86-2.824 1.582 0 2.86 1.262 2.86 2.824 0 1.563-1.278 2.824-2.86 2.824zm0-3.765a.938.938 0 0 0-.954.941c0 .528.42.942.954.942a.938.938 0 0 0 .953-.942.938.938 0 0 0-.953-.941zm0 0a.938.938 0 0 0-.954.941c0 .528.42.942.954.942a.938.938 0 0 0 .953-.942.938.938 0 0 0-.953-.941zm0 0a.938.938 0 0 0-.954.941c0 .528.42.942.954.942a.938.938 0 0 0 .953-.942.938.938 0 0 0-.953-.941zm0 0a.938.938 0 0 0-.954.941c0 .528.42.942.954.942a.938.938 0 0 0 .953-.942.938.938 0 0 0-.953-.941zm0 0a.938.938 0 0 0-.954.941c0 .528.42.942.954.942a.938.938 0 0 0 .953-.942.938.938 0 0 0-.953-.941zm0 0a.938.938 0 0 0-.954.941c0 .528.42.942.954.942a.938.938 0 0 0 .953-.942.938.938 0 0 0-.953-.941zm0 0a.938.938 0 0 0-.954.941c0 .528.42.942.954.942a.938.938 0 0 0 .953-.942.938.938 0 0 0-.953-.941zm0 0a.938.938 0 0 0-.954.941c0 .528.42.942.954.942a.938.938 0 0 0 .953-.942.938.938 0 0 0-.953-.941zm0 0a.938.938 0 0 0-.954.941c0 .528.42.942.954.942a.938.938 0 0 0 .953-.942.938.938 0 0 0-.953-.941z"
         fill="url(#d)" />
      <path
         id="path37"
         transform="translate(5 8.333)"
         d="M16.91.05H7.378a1.895 1.895 0 0 0-1.906 1.882c0 1.04.854 1.883 1.906 1.883h9.532a1.895 1.895 0 0 0 1.907-1.883c0-1.04-.854-1.883-1.907-1.883z"
         fill="url(#e)" />
      <path
         id="path39"
         transform="translate(17.828 25.425)"
         d="M7.266 1.062a12.926 12.926 0 0 0-2.25 2.184 13.46 13.46 0 0 0-2.802 5.816A10.742 10.742 0 0 1 .022 2.55V.968c0-.527.42-.942.953-.942h1.601c1.64 0 3.241.358 4.69 1.036z"
         fill="url(#f)" />
      <path
         id="path41"
         transform="translate(17.828 25.425)"
         d="M18.38.026h-2.555a12.022 12.022 0 0 0-7.892 2.937c-.515.433-.991.923-1.43 1.45-2.173 2.673-3.069 6.08-2.478 9.413l4.156-4.104a.93.93 0 0 1 1.334 0 .902.902 0 0 1 0 1.317l-4.098 4.048h1.925c3.718 0 7.092-1.487 9.265-4.066a11.66 11.66 0 0 0 2.726-7.53V.967a.938.938 0 0 0-.953-.942z"
         fill="url(#g)" />
    </g>
  </g>
</svg>
