<?xml version="1.0" encoding="UTF-8" standalone="no"?>
<svg
   xmlns:dc="http://purl.org/dc/elements/1.1/"
   xmlns:cc="http://creativecommons.org/ns#"
   xmlns:rdf="http://www.w3.org/1999/02/22-rdf-syntax-ns#"
   xmlns:svg="http://www.w3.org/2000/svg"
   xmlns="http://www.w3.org/2000/svg"
   xmlns:xlink="http://www.w3.org/1999/xlink"
   id="svg14"
   version="1.1"
   viewBox="0 0 24 24"
   height="24"
   width="24">
  <metadata
     id="metadata18">
    <rdf:RDF>
      <cc:Work
         rdf:about="">
        <dc:format>image/svg+xml</dc:format>
        <dc:type
           rdf:resource="http://purl.org/dc/dcmitype/StillImage" />
      </cc:Work>
    </rdf:RDF>
  </metadata>
  <defs
     id="defs3">
    <path
       d="M9 0C4.582 0 1 3.65 1 8.15c0 5.36 5.201 7.926 5.853 8.523.666.61 1.215 1.977 1.437 2.752.108.376.41.567.71.575.3-.009.602-.2.71-.575.222-.775.771-2.141 1.437-2.752C11.799 16.076 17 13.51 17 8.15 17 3.65 13.418 0 9 0zm0 10.373c-.78 0-1.5-.424-1.89-1.111a2.259 2.259 0 0 1 0-2.223A2.175 2.175 0 0 1 9 5.927c1.205 0 2.182.996 2.182 2.223 0 1.228-.977 2.223-2.182 2.223z"
       id="a" />
  </defs>
  <g
     id="g12"
     transform="translate(3 2)"
     fill-rule="evenodd"
     fill="none">
    <mask
       fill="#fff"
       id="b">
      <use
         id="use5"
         xlink:href="#a" />
    </mask>
    <g
       id="g10"
       mask="url(#b)"
       fill-opacity=".54"
       fill="#151B39">
      <path
         id="path8"
         d="M-3-2h24v24H-3z" />
    </g>
  </g>
</svg>
