<?xml version="1.0" standalone="no"?>
<!DOCTYPE svg PUBLIC "-//W3C//DTD SVG 20010904//EN"
 "http://www.w3.org/TR/2001/REC-SVG-20010904/DTD/svg10.dtd">
<svg version="1.0" xmlns="http://www.w3.org/2000/svg"
 width="1024.000000pt" height="768.000000pt" viewBox="0 0 1024.000000 768.000000"
 preserveAspectRatio="xMidYMid meet">
<metadata>
Created by potrace 1.16, written by Peter Selinger 2001-2019
</metadata>
<g transform="translate(0.000000,768.000000) scale(0.100000,-0.100000)"
fill="#000000" stroke="none">
<path d="M150 7425 c-24 -53 -50 -100 -59 -105 -12 -7 -5 -9 24 -10 26 0 35 3
27 9 -8 5 -12 17 -10 27 5 30 73 32 88 3 10 -17 9 -23 -1 -30 -9 -6 4 -9 35
-9 38 0 46 3 38 13 -6 6 -27 50 -47 97 -21 47 -40 89 -44 93 -4 4 -27 -35 -51
-88z"/>
<path d="M1088 7514 c8 -4 12 -34 12 -99 0 -65 -4 -95 -12 -99 -7 -3 22 -5 66
-3 72 2 80 5 102 30 17 20 24 40 24 72 0 32 -7 52 -24 72 -22 25 -30 28 -102
30 -44 2 -73 0 -66 -3z"/>
<path d="M1948 7508 c7 -7 12 -22 12 -35 0 -19 -4 -22 -28 -17 -47 10 -82 -43
-68 -101 8 -33 50 -53 76 -37 11 6 20 7 22 2 2 -6 15 -6 33 -1 17 5 24 10 18
10 -10 1 -13 27 -13 96 l0 95 -32 0 c-25 0 -29 -3 -20 -12z"/>
</g>
</svg>
