<?xml version="1.0" encoding="UTF-8" standalone="no"?>
<svg
   xmlns:dc="http://purl.org/dc/elements/1.1/"
   xmlns:cc="http://creativecommons.org/ns#"
   xmlns:rdf="http://www.w3.org/1999/02/22-rdf-syntax-ns#"
   xmlns:svg="http://www.w3.org/2000/svg"
   xmlns="http://www.w3.org/2000/svg"
   xmlns:xlink="http://www.w3.org/1999/xlink"
   id="svg14"
   version="1.1"
   viewBox="0 0 24 24"
   height="24"
   width="24">
  <metadata
     id="metadata18">
    <rdf:RDF>
      <cc:Work
         rdf:about="">
        <dc:format>image/svg+xml</dc:format>
        <dc:type
           rdf:resource="http://purl.org/dc/dcmitype/StillImage" />
      </cc:Work>
    </rdf:RDF>
  </metadata>
  <defs
     id="defs3">
    <path
       d="M9.016 0a4 4 0 0 1 4 4l-.001 1h1.25a2 2 0 0 1 1.982 1.736l1.467 11A2 2 0 0 1 15.731 20H2.301a2 2 0 0 1-1.983-2.264l1.466-11A2 2 0 0 1 3.767 5h1.248V4a4 4 0 0 1 4-4zm5.249 7H3.767L2.3 18h13.431L14.265 7zm-5.25-5a2 2 0 0 0-2 2v1h4V4a2 2 0 0 0-2-2z"
       id="a" />
  </defs>
  <g
     id="g12"
     transform="translate(3 2)"
     fill-rule="evenodd"
     fill="none">
    <mask
       fill="#fff"
       id="b">
      <use
         id="use5"
         xlink:href="#a" />
    </mask>
    <g
       id="g10"
       mask="url(#b)"
       fill="#FFF">
      <path
         id="path8"
         d="M-3-2h24v24H-3z" />
    </g>
  </g>
</svg>
